<svg xmlns="http://www.w3.org/2000/svg" viewBox="0 0 256 262" aria-hidden="true">
  <path fill="#4285F4" d="M255.68 133.45c0-10.45-.94-20.5-2.69-30.14H130.5v57.02h70.02c-3.02 16.3-12.2 30.11-25.99 39.33v32.66h41.99c24.58-22.64 39.16-56.02 39.16-98.87Z"/>
  <path fill="#34A853" d="M130.5 261.1c35.43 0 65.14-11.74 86.86-31.8l-41.99-32.66c-11.68 7.82-26.64 12.44-44.87 12.44-34.5 0-63.72-23.3-74.16-54.62H12.97v34.34c21.59 42.86 65.95 72.3 117.53 72.3Z"/>
  <path fill="#FBBC05" d="M56.34 154.46c-2.66-7.82-4.17-16.19-4.17-24.96 0-8.77 1.51-17.14 4.17-24.96V70.2H12.97C4.61 86.86 0 107.08 0 129.5c0 22.42 4.61 42.64 12.97 59.3l43.37-34.34Z"/>
  <path fill="#EA4335" d="M130.5 49.91c19.27 0 36.58 6.62 50.2 19.6l37.65-37.65C195.58 10.65 165.87 0 130.5 0 78.92 0 34.56 29.44 12.97 72.3l43.37 34.34c10.45-31.33 39.67-56.73 74.16-56.73Z"/>
</svg>
